<mxfile host="app.diagrams.net" modified="2023-11-30T10:03:00.225Z" agent="Mozilla/5.0 (Windows NT 10.0; Win64; x64) AppleWebKit/537.36 (KHTML, like Gecko) Chrome/119.0.0.0 Safari/537.36" etag="rKwHHAOICtjLu2MGhQgj" version="22.1.3" type="google">
  <diagram id="C5RBs43oDa-KdzZeNtuy" name="Page-1">
    <mxGraphModel grid="1" page="1" gridSize="10" guides="1" tooltips="1" connect="1" arrows="1" fold="1" pageScale="1" pageWidth="827" pageHeight="1169" math="0" shadow="0">
      <root>
        <mxCell id="WIyWlLk6GJQsqaUBKTNV-0" />
        <mxCell id="WIyWlLk6GJQsqaUBKTNV-1" parent="WIyWlLk6GJQsqaUBKTNV-0" />
        <mxCell id="Yf_UlPUxl8KcaXrmMBYq-0" value="" style="endArrow=classic;html=1;rounded=0;" edge="1" parent="WIyWlLk6GJQsqaUBKTNV-1">
          <mxGeometry width="50" height="50" relative="1" as="geometry">
            <mxPoint y="240" as="sourcePoint" />
            <mxPoint x="100" y="240" as="targetPoint" />
          </mxGeometry>
        </mxCell>
        <mxCell id="Yf_UlPUxl8KcaXrmMBYq-2" value="" style="ellipse;whiteSpace=wrap;html=1;aspect=fixed;" vertex="1" parent="WIyWlLk6GJQsqaUBKTNV-1">
          <mxGeometry x="-40" y="220" width="40" height="40" as="geometry" />
        </mxCell>
        <mxCell id="Yf_UlPUxl8KcaXrmMBYq-3" value="index.php" style="rounded=0;whiteSpace=wrap;html=1;" vertex="1" parent="WIyWlLk6GJQsqaUBKTNV-1">
          <mxGeometry x="100" y="210" width="120" height="60" as="geometry" />
        </mxCell>
        <mxCell id="Yf_UlPUxl8KcaXrmMBYq-4" value="" style="endArrow=classic;html=1;rounded=0;entryX=0.5;entryY=0;entryDx=0;entryDy=0;" edge="1" parent="WIyWlLk6GJQsqaUBKTNV-1" target="Yf_UlPUxl8KcaXrmMBYq-6">
          <mxGeometry width="50" height="50" relative="1" as="geometry">
            <mxPoint x="160" y="270" as="sourcePoint" />
            <mxPoint x="230" y="300" as="targetPoint" />
          </mxGeometry>
        </mxCell>
        <mxCell id="Yf_UlPUxl8KcaXrmMBYq-82" value="Comprend" style="edgeLabel;html=1;align=center;verticalAlign=middle;resizable=0;points=[];" connectable="0" vertex="1" parent="Yf_UlPUxl8KcaXrmMBYq-4">
          <mxGeometry x="-0.0789" y="-1" relative="1" as="geometry">
            <mxPoint as="offset" />
          </mxGeometry>
        </mxCell>
        <mxCell id="Yf_UlPUxl8KcaXrmMBYq-5" value="" style="endArrow=classic;html=1;rounded=0;" edge="1" parent="WIyWlLk6GJQsqaUBKTNV-1">
          <mxGeometry width="50" height="50" relative="1" as="geometry">
            <mxPoint x="160" y="210" as="sourcePoint" />
            <mxPoint x="210" y="170" as="targetPoint" />
          </mxGeometry>
        </mxCell>
        <mxCell id="Yf_UlPUxl8KcaXrmMBYq-79" value="Comprend" style="edgeLabel;html=1;align=center;verticalAlign=middle;resizable=0;points=[];" connectable="0" vertex="1" parent="Yf_UlPUxl8KcaXrmMBYq-5">
          <mxGeometry x="-0.1398" y="-2" relative="1" as="geometry">
            <mxPoint as="offset" />
          </mxGeometry>
        </mxCell>
        <mxCell id="Yf_UlPUxl8KcaXrmMBYq-6" value="footer.php" style="rounded=0;whiteSpace=wrap;html=1;" vertex="1" parent="WIyWlLk6GJQsqaUBKTNV-1">
          <mxGeometry x="160" y="310" width="120" height="60" as="geometry" />
        </mxCell>
        <mxCell id="Yf_UlPUxl8KcaXrmMBYq-7" value="header.php" style="rounded=0;whiteSpace=wrap;html=1;" vertex="1" parent="WIyWlLk6GJQsqaUBKTNV-1">
          <mxGeometry x="160" y="110" width="120" height="60" as="geometry" />
        </mxCell>
        <mxCell id="Yf_UlPUxl8KcaXrmMBYq-12" value="mentionsLegales.php" style="rounded=0;whiteSpace=wrap;html=1;" vertex="1" parent="WIyWlLk6GJQsqaUBKTNV-1">
          <mxGeometry x="350" y="310" width="120" height="60" as="geometry" />
        </mxCell>
        <mxCell id="Yf_UlPUxl8KcaXrmMBYq-13" value="" style="endArrow=classic;html=1;rounded=0;entryX=0;entryY=0.5;entryDx=0;entryDy=0;exitX=1;exitY=0.5;exitDx=0;exitDy=0;" edge="1" parent="WIyWlLk6GJQsqaUBKTNV-1" source="Yf_UlPUxl8KcaXrmMBYq-6" target="Yf_UlPUxl8KcaXrmMBYq-12">
          <mxGeometry width="50" height="50" relative="1" as="geometry">
            <mxPoint x="280" y="350" as="sourcePoint" />
            <mxPoint x="330" y="300" as="targetPoint" />
          </mxGeometry>
        </mxCell>
        <mxCell id="Yf_UlPUxl8KcaXrmMBYq-14" value="connexion.php" style="rounded=0;whiteSpace=wrap;html=1;" vertex="1" parent="WIyWlLk6GJQsqaUBKTNV-1">
          <mxGeometry x="340" y="50" width="120" height="60" as="geometry" />
        </mxCell>
        <mxCell id="Yf_UlPUxl8KcaXrmMBYq-15" value="" style="endArrow=classic;html=1;rounded=0;entryX=0;entryY=0.5;entryDx=0;entryDy=0;" edge="1" parent="WIyWlLk6GJQsqaUBKTNV-1" target="Yf_UlPUxl8KcaXrmMBYq-14">
          <mxGeometry width="50" height="50" relative="1" as="geometry">
            <mxPoint x="280" y="140" as="sourcePoint" />
            <mxPoint x="330" y="90" as="targetPoint" />
          </mxGeometry>
        </mxCell>
        <mxCell id="Yf_UlPUxl8KcaXrmMBYq-24" style="edgeStyle=orthogonalEdgeStyle;rounded=0;orthogonalLoop=1;jettySize=auto;html=1;entryX=0.5;entryY=1;entryDx=0;entryDy=0;" edge="1" parent="WIyWlLk6GJQsqaUBKTNV-1" source="Yf_UlPUxl8KcaXrmMBYq-16" target="Yf_UlPUxl8KcaXrmMBYq-14">
          <mxGeometry relative="1" as="geometry">
            <mxPoint x="400" y="180" as="targetPoint" />
            <Array as="points">
              <mxPoint x="610" y="160" />
              <mxPoint x="400" y="160" />
            </Array>
          </mxGeometry>
        </mxCell>
        <mxCell id="Yf_UlPUxl8KcaXrmMBYq-28" value="Compte créé" style="edgeLabel;html=1;align=center;verticalAlign=middle;resizable=0;points=[];" connectable="0" vertex="1" parent="Yf_UlPUxl8KcaXrmMBYq-24">
          <mxGeometry x="0.0003" y="-1" relative="1" as="geometry">
            <mxPoint as="offset" />
          </mxGeometry>
        </mxCell>
        <mxCell id="Yf_UlPUxl8KcaXrmMBYq-16" value="creerCompte.php" style="rounded=0;whiteSpace=wrap;html=1;" vertex="1" parent="WIyWlLk6GJQsqaUBKTNV-1">
          <mxGeometry x="550" y="50" width="120" height="60" as="geometry" />
        </mxCell>
        <mxCell id="Yf_UlPUxl8KcaXrmMBYq-17" value="" style="endArrow=classic;html=1;rounded=0;" edge="1" parent="WIyWlLk6GJQsqaUBKTNV-1">
          <mxGeometry width="50" height="50" relative="1" as="geometry">
            <mxPoint x="460" y="80" as="sourcePoint" />
            <mxPoint x="550" y="80" as="targetPoint" />
          </mxGeometry>
        </mxCell>
        <mxCell id="Yf_UlPUxl8KcaXrmMBYq-22" style="edgeStyle=orthogonalEdgeStyle;rounded=0;orthogonalLoop=1;jettySize=auto;html=1;exitX=0;exitY=0.5;exitDx=0;exitDy=0;entryX=0;entryY=0;entryDx=0;entryDy=0;" edge="1" parent="WIyWlLk6GJQsqaUBKTNV-1" source="Yf_UlPUxl8KcaXrmMBYq-20" target="Yf_UlPUxl8KcaXrmMBYq-14">
          <mxGeometry relative="1" as="geometry">
            <mxPoint x="220" y="50" as="targetPoint" />
            <Array as="points">
              <mxPoint x="221" y="-50" />
              <mxPoint x="221" y="50" />
            </Array>
          </mxGeometry>
        </mxCell>
        <mxCell id="Yf_UlPUxl8KcaXrmMBYq-29" value="&lt;font style=&quot;font-size: 11px;&quot;&gt;Mauvais login ou&lt;br style=&quot;border-color: var(--border-color); background-color: rgb(251, 251, 251);&quot;&gt;&lt;span style=&quot;background-color: rgb(251, 251, 251);&quot;&gt;mot de passe&lt;/span&gt;&lt;/font&gt;" style="edgeLabel;html=1;align=center;verticalAlign=middle;resizable=0;points=[];" connectable="0" vertex="1" parent="Yf_UlPUxl8KcaXrmMBYq-22">
          <mxGeometry x="-0.0051" y="1" relative="1" as="geometry">
            <mxPoint as="offset" />
          </mxGeometry>
        </mxCell>
        <mxCell id="Yf_UlPUxl8KcaXrmMBYq-20" value="traitementLogin.php" style="rounded=0;whiteSpace=wrap;html=1;" vertex="1" parent="WIyWlLk6GJQsqaUBKTNV-1">
          <mxGeometry x="340" y="-80" width="120" height="60" as="geometry" />
        </mxCell>
        <mxCell id="Yf_UlPUxl8KcaXrmMBYq-21" value="" style="endArrow=classic;html=1;rounded=0;entryX=0.5;entryY=1;entryDx=0;entryDy=0;exitX=0.5;exitY=0;exitDx=0;exitDy=0;" edge="1" parent="WIyWlLk6GJQsqaUBKTNV-1" source="Yf_UlPUxl8KcaXrmMBYq-14" target="Yf_UlPUxl8KcaXrmMBYq-20">
          <mxGeometry width="50" height="50" relative="1" as="geometry">
            <mxPoint x="360" y="70" as="sourcePoint" />
            <mxPoint x="410" y="20" as="targetPoint" />
          </mxGeometry>
        </mxCell>
        <mxCell id="Yf_UlPUxl8KcaXrmMBYq-26" value="" style="endArrow=classic;html=1;rounded=0;entryX=1;entryY=0.5;entryDx=0;entryDy=0;" edge="1" parent="WIyWlLk6GJQsqaUBKTNV-1" target="Yf_UlPUxl8KcaXrmMBYq-16">
          <mxGeometry width="50" height="50" relative="1" as="geometry">
            <mxPoint x="610" y="50" as="sourcePoint" />
            <mxPoint x="690" y="90" as="targetPoint" />
            <Array as="points">
              <mxPoint x="610" />
              <mxPoint x="690" />
              <mxPoint x="690" y="80" />
            </Array>
          </mxGeometry>
        </mxCell>
        <mxCell id="Yf_UlPUxl8KcaXrmMBYq-33" value="Echec de la &lt;br&gt;création" style="edgeLabel;html=1;align=center;verticalAlign=middle;resizable=0;points=[];" connectable="0" vertex="1" parent="Yf_UlPUxl8KcaXrmMBYq-26">
          <mxGeometry x="-0.0489" relative="1" as="geometry">
            <mxPoint x="-19" as="offset" />
          </mxGeometry>
        </mxCell>
        <mxCell id="Yf_UlPUxl8KcaXrmMBYq-36" value="" style="endArrow=classic;html=1;rounded=0;exitX=0;exitY=0.25;exitDx=0;exitDy=0;entryX=0.167;entryY=0;entryDx=0;entryDy=0;entryPerimeter=0;" edge="1" parent="WIyWlLk6GJQsqaUBKTNV-1" source="Yf_UlPUxl8KcaXrmMBYq-20" target="Yf_UlPUxl8KcaXrmMBYq-3">
          <mxGeometry width="50" height="50" relative="1" as="geometry">
            <mxPoint x="320" y="-70" as="sourcePoint" />
            <mxPoint x="130" y="-65" as="targetPoint" />
            <Array as="points">
              <mxPoint x="120" y="-65" />
            </Array>
          </mxGeometry>
        </mxCell>
        <mxCell id="Yf_UlPUxl8KcaXrmMBYq-39" value="Connexion réussie" style="edgeLabel;html=1;align=center;verticalAlign=middle;resizable=0;points=[];" connectable="0" vertex="1" parent="Yf_UlPUxl8KcaXrmMBYq-36">
          <mxGeometry x="-0.395" y="-2" relative="1" as="geometry">
            <mxPoint x="27" as="offset" />
          </mxGeometry>
        </mxCell>
        <mxCell id="Yf_UlPUxl8KcaXrmMBYq-38" value="Espace sécurisé" style="swimlane;whiteSpace=wrap;html=1;" vertex="1" parent="WIyWlLk6GJQsqaUBKTNV-1">
          <mxGeometry x="760" y="70" width="540" height="325" as="geometry" />
        </mxCell>
        <mxCell id="Yf_UlPUxl8KcaXrmMBYq-42" value="compte.php" style="rounded=0;whiteSpace=wrap;html=1;" vertex="1" parent="Yf_UlPUxl8KcaXrmMBYq-38">
          <mxGeometry x="30" y="145" width="120" height="60" as="geometry" />
        </mxCell>
        <mxCell id="Yf_UlPUxl8KcaXrmMBYq-43" value="deconnexion.php" style="rounded=0;whiteSpace=wrap;html=1;" vertex="1" parent="Yf_UlPUxl8KcaXrmMBYq-38">
          <mxGeometry x="190" y="235" width="120" height="60" as="geometry" />
        </mxCell>
        <mxCell id="Yf_UlPUxl8KcaXrmMBYq-46" value="historique.php" style="rounded=0;whiteSpace=wrap;html=1;" vertex="1" parent="Yf_UlPUxl8KcaXrmMBYq-38">
          <mxGeometry x="230" y="145" width="120" height="60" as="geometry" />
        </mxCell>
        <mxCell id="Yf_UlPUxl8KcaXrmMBYq-48" value="" style="endArrow=classic;html=1;rounded=0;exitX=1;exitY=0.5;exitDx=0;exitDy=0;entryX=0;entryY=0.5;entryDx=0;entryDy=0;" edge="1" parent="Yf_UlPUxl8KcaXrmMBYq-38" source="Yf_UlPUxl8KcaXrmMBYq-42" target="Yf_UlPUxl8KcaXrmMBYq-46">
          <mxGeometry width="50" height="50" relative="1" as="geometry">
            <mxPoint x="140" y="125" as="sourcePoint" />
            <mxPoint x="190" y="75" as="targetPoint" />
          </mxGeometry>
        </mxCell>
        <mxCell id="Yf_UlPUxl8KcaXrmMBYq-49" value="" style="endArrow=classic;html=1;rounded=0;exitX=1;exitY=0.5;exitDx=0;exitDy=0;entryX=0;entryY=0.5;entryDx=0;entryDy=0;" edge="1" parent="Yf_UlPUxl8KcaXrmMBYq-38" source="Yf_UlPUxl8KcaXrmMBYq-42" target="Yf_UlPUxl8KcaXrmMBYq-43">
          <mxGeometry width="50" height="50" relative="1" as="geometry">
            <mxPoint x="230" y="205" as="sourcePoint" />
            <mxPoint x="280" y="155" as="targetPoint" />
          </mxGeometry>
        </mxCell>
        <mxCell id="Yf_UlPUxl8KcaXrmMBYq-61" style="edgeStyle=orthogonalEdgeStyle;rounded=0;orthogonalLoop=1;jettySize=auto;html=1;entryX=0;entryY=0.5;entryDx=0;entryDy=0;" edge="1" parent="Yf_UlPUxl8KcaXrmMBYq-38" target="Yf_UlPUxl8KcaXrmMBYq-62">
          <mxGeometry relative="1" as="geometry">
            <mxPoint x="209.99999999999977" y="10" as="targetPoint" />
            <mxPoint x="139.99999999999977" y="70.0344827586207" as="sourcePoint" />
          </mxGeometry>
        </mxCell>
        <mxCell id="Yf_UlPUxl8KcaXrmMBYq-59" value="commande.php" style="rounded=0;whiteSpace=wrap;html=1;" vertex="1" parent="Yf_UlPUxl8KcaXrmMBYq-38">
          <mxGeometry x="30" y="40" width="120" height="60" as="geometry" />
        </mxCell>
        <mxCell id="Yf_UlPUxl8KcaXrmMBYq-62" value="paiement.php" style="rounded=0;whiteSpace=wrap;html=1;" vertex="1" parent="Yf_UlPUxl8KcaXrmMBYq-38">
          <mxGeometry x="220" y="40" width="120" height="60" as="geometry" />
        </mxCell>
        <mxCell id="Yf_UlPUxl8KcaXrmMBYq-63" style="edgeStyle=orthogonalEdgeStyle;rounded=0;orthogonalLoop=1;jettySize=auto;html=1;" edge="1" parent="Yf_UlPUxl8KcaXrmMBYq-38">
          <mxGeometry relative="1" as="geometry">
            <mxPoint x="409.9999999999998" y="69.66000000000003" as="targetPoint" />
            <mxPoint x="340" y="69.66000000000003" as="sourcePoint" />
          </mxGeometry>
        </mxCell>
        <mxCell id="Yf_UlPUxl8KcaXrmMBYq-64" value="statut.php" style="rounded=0;whiteSpace=wrap;html=1;" vertex="1" parent="Yf_UlPUxl8KcaXrmMBYq-38">
          <mxGeometry x="410" y="40" width="120" height="60" as="geometry" />
        </mxCell>
        <mxCell id="Yf_UlPUxl8KcaXrmMBYq-67" value="" style="endArrow=classic;html=1;rounded=0;" edge="1" parent="Yf_UlPUxl8KcaXrmMBYq-38">
          <mxGeometry width="50" height="50" relative="1" as="geometry">
            <mxPoint x="120" y="40" as="sourcePoint" />
            <mxPoint x="120" y="-50" as="targetPoint" />
          </mxGeometry>
        </mxCell>
        <mxCell id="Yf_UlPUxl8KcaXrmMBYq-40" value="" style="endArrow=classic;html=1;rounded=0;exitX=1;exitY=0.5;exitDx=0;exitDy=0;" edge="1" parent="WIyWlLk6GJQsqaUBKTNV-1" source="Yf_UlPUxl8KcaXrmMBYq-3">
          <mxGeometry width="50" height="50" relative="1" as="geometry">
            <mxPoint x="580" y="270" as="sourcePoint" />
            <mxPoint x="790" y="240" as="targetPoint" />
          </mxGeometry>
        </mxCell>
        <mxCell id="Yf_UlPUxl8KcaXrmMBYq-41" value="Si connecté" style="edgeLabel;html=1;align=center;verticalAlign=middle;resizable=0;points=[];" connectable="0" vertex="1" parent="Yf_UlPUxl8KcaXrmMBYq-40">
          <mxGeometry x="-0.2109" y="-1" relative="1" as="geometry">
            <mxPoint as="offset" />
          </mxGeometry>
        </mxCell>
        <mxCell id="Yf_UlPUxl8KcaXrmMBYq-45" style="edgeStyle=orthogonalEdgeStyle;rounded=0;orthogonalLoop=1;jettySize=auto;html=1;exitX=0.5;exitY=1;exitDx=0;exitDy=0;" edge="1" parent="WIyWlLk6GJQsqaUBKTNV-1" source="Yf_UlPUxl8KcaXrmMBYq-43">
          <mxGeometry relative="1" as="geometry">
            <mxPoint x="120" y="270" as="targetPoint" />
            <mxPoint x="1010" y="200" as="sourcePoint" />
            <Array as="points">
              <mxPoint x="1010" y="510" />
              <mxPoint x="120" y="510" />
            </Array>
          </mxGeometry>
        </mxCell>
        <mxCell id="Yf_UlPUxl8KcaXrmMBYq-50" value="" style="endArrow=classic;html=1;rounded=0;entryX=0.17;entryY=1.008;entryDx=0;entryDy=0;entryPerimeter=0;" edge="1" parent="WIyWlLk6GJQsqaUBKTNV-1" target="Yf_UlPUxl8KcaXrmMBYq-14">
          <mxGeometry width="50" height="50" relative="1" as="geometry">
            <mxPoint x="360" y="240" as="sourcePoint" />
            <mxPoint x="350" y="130" as="targetPoint" />
          </mxGeometry>
        </mxCell>
        <mxCell id="Yf_UlPUxl8KcaXrmMBYq-51" value="Sinon" style="edgeLabel;html=1;align=center;verticalAlign=middle;resizable=0;points=[];" connectable="0" vertex="1" parent="Yf_UlPUxl8KcaXrmMBYq-50">
          <mxGeometry x="0.2542" y="-1" relative="1" as="geometry">
            <mxPoint as="offset" />
          </mxGeometry>
        </mxCell>
        <mxCell id="Yf_UlPUxl8KcaXrmMBYq-52" value="" style="endArrow=classic;html=1;rounded=0;exitX=0.383;exitY=0;exitDx=0;exitDy=0;exitPerimeter=0;entryX=0;entryY=0.5;entryDx=0;entryDy=0;" edge="1" parent="WIyWlLk6GJQsqaUBKTNV-1" source="Yf_UlPUxl8KcaXrmMBYq-7" target="Yf_UlPUxl8KcaXrmMBYq-72">
          <mxGeometry width="50" height="50" relative="1" as="geometry">
            <mxPoint x="190" y="105" as="sourcePoint" />
            <mxPoint x="440" y="-190" as="targetPoint" />
            <Array as="points">
              <mxPoint x="50" y="10" />
              <mxPoint x="50" y="-140" />
              <mxPoint x="440" y="-140" />
            </Array>
          </mxGeometry>
        </mxCell>
        <mxCell id="Yf_UlPUxl8KcaXrmMBYq-57" value="" style="endArrow=classic;html=1;rounded=0;" edge="1" parent="WIyWlLk6GJQsqaUBKTNV-1">
          <mxGeometry width="50" height="50" relative="1" as="geometry">
            <mxPoint x="160" y="-140" as="sourcePoint" />
            <mxPoint x="210" y="-300" as="targetPoint" />
            <Array as="points">
              <mxPoint x="160" y="-300" />
              <mxPoint x="180" y="-300" />
            </Array>
          </mxGeometry>
        </mxCell>
        <mxCell id="Yf_UlPUxl8KcaXrmMBYq-58" value="panier.php" style="rounded=0;whiteSpace=wrap;html=1;" vertex="1" parent="WIyWlLk6GJQsqaUBKTNV-1">
          <mxGeometry x="210" y="-330" width="120" height="60" as="geometry" />
        </mxCell>
        <mxCell id="Yf_UlPUxl8KcaXrmMBYq-65" style="edgeStyle=orthogonalEdgeStyle;rounded=0;orthogonalLoop=1;jettySize=auto;html=1;exitX=0.5;exitY=0;exitDx=0;exitDy=0;" edge="1" parent="WIyWlLk6GJQsqaUBKTNV-1" source="Yf_UlPUxl8KcaXrmMBYq-64">
          <mxGeometry relative="1" as="geometry">
            <mxPoint x="120" y="120" as="targetPoint" />
            <mxPoint x="830" y="-390" as="sourcePoint" />
            <Array as="points">
              <mxPoint x="1230" y="20" />
              <mxPoint x="830" y="20" />
              <mxPoint x="830" y="-390" />
              <mxPoint x="30" y="-390" />
              <mxPoint x="30" y="120" />
            </Array>
          </mxGeometry>
        </mxCell>
        <mxCell id="Yf_UlPUxl8KcaXrmMBYq-66" value="Si le client veut annuler sa commande" style="edgeLabel;html=1;align=center;verticalAlign=middle;resizable=0;points=[];" connectable="0" vertex="1" parent="Yf_UlPUxl8KcaXrmMBYq-65">
          <mxGeometry x="-0.2675" y="-2" relative="1" as="geometry">
            <mxPoint x="-372" y="-57" as="offset" />
          </mxGeometry>
        </mxCell>
        <mxCell id="Yf_UlPUxl8KcaXrmMBYq-68" value="" style="endArrow=classic;html=1;rounded=0;entryX=0;entryY=0.5;entryDx=0;entryDy=0;" edge="1" parent="WIyWlLk6GJQsqaUBKTNV-1" target="Yf_UlPUxl8KcaXrmMBYq-59">
          <mxGeometry width="50" height="50" relative="1" as="geometry">
            <mxPoint x="330" y="-300" as="sourcePoint" />
            <mxPoint x="380" y="-350" as="targetPoint" />
            <Array as="points">
              <mxPoint x="680" y="-300" />
            </Array>
          </mxGeometry>
        </mxCell>
        <mxCell id="Yf_UlPUxl8KcaXrmMBYq-69" value="" style="endArrow=classic;html=1;rounded=0;exitX=0.5;exitY=0;exitDx=0;exitDy=0;" edge="1" parent="WIyWlLk6GJQsqaUBKTNV-1" source="Yf_UlPUxl8KcaXrmMBYq-58">
          <mxGeometry width="50" height="50" relative="1" as="geometry">
            <mxPoint x="270" y="-330" as="sourcePoint" />
            <mxPoint x="270" y="-390" as="targetPoint" />
          </mxGeometry>
        </mxCell>
        <mxCell id="Yf_UlPUxl8KcaXrmMBYq-70" value="" style="endArrow=classic;html=1;rounded=0;" edge="1" parent="WIyWlLk6GJQsqaUBKTNV-1">
          <mxGeometry width="50" height="50" relative="1" as="geometry">
            <mxPoint x="1090.34" y="110" as="sourcePoint" />
            <mxPoint x="1090" y="20" as="targetPoint" />
          </mxGeometry>
        </mxCell>
        <mxCell id="Yf_UlPUxl8KcaXrmMBYq-72" value="produits.php" style="rounded=0;whiteSpace=wrap;html=1;" vertex="1" parent="WIyWlLk6GJQsqaUBKTNV-1">
          <mxGeometry x="520" y="-170" width="120" height="60" as="geometry" />
        </mxCell>
        <mxCell id="Yf_UlPUxl8KcaXrmMBYq-73" value="" style="endArrow=classic;html=1;rounded=0;entryX=1.008;entryY=0.814;entryDx=0;entryDy=0;entryPerimeter=0;" edge="1" parent="WIyWlLk6GJQsqaUBKTNV-1" target="Yf_UlPUxl8KcaXrmMBYq-58">
          <mxGeometry width="50" height="50" relative="1" as="geometry">
            <mxPoint x="580" y="-170" as="sourcePoint" />
            <mxPoint x="350" y="-290" as="targetPoint" />
            <Array as="points">
              <mxPoint x="580" y="-280" />
            </Array>
          </mxGeometry>
        </mxCell>
        <mxCell id="Yf_UlPUxl8KcaXrmMBYq-75" value="Le client ajoute les produits au panier" style="edgeLabel;html=1;align=center;verticalAlign=middle;resizable=0;points=[];" connectable="0" vertex="1" parent="Yf_UlPUxl8KcaXrmMBYq-73">
          <mxGeometry x="0.2539" y="-1" relative="1" as="geometry">
            <mxPoint as="offset" />
          </mxGeometry>
        </mxCell>
      </root>
    </mxGraphModel>
  </diagram>
</mxfile>
